<?xml version="1.0" encoding="UTF-8" standalone="no"?>
<!DOCTYPE svg PUBLIC "-//W3C//DTD SVG 1.1//EN" "http://www.w3.org/Graphics/SVG/1.1/DTD/svg11.dtd">
<svg width="100%" height="100%" viewBox="0 0 366 102" version="1.1" xmlns="http://www.w3.org/2000/svg" xmlns:xlink="http://www.w3.org/1999/xlink" xml:space="preserve" xmlns:serif="http://www.serif.com/" style="fill-rule:evenodd;clip-rule:evenodd;stroke-linejoin:round;stroke-miterlimit:2;">
    <g transform="matrix(1,0,0,1,-5590.22,-1781.16)">
        <g id="Page-4" serif:id="Page 4" transform="matrix(0.190405,0,0,0.0939429,5590.22,1781.16)">
            <rect x="0" y="0" width="1920" height="1080" style="fill:none;"/>
            <g transform="matrix(5.25196,0,0,10.6448,-3302.71,-3506.76)">
                <g id="Layer-1" serif:id="Layer 1">
                    <g>
                        <g transform="matrix(0.314899,0,0,0.314899,530.284,199.987)">
                            <g transform="matrix(1,0,0,1,511.197,666.815)">
                                <path d="M0,-150.041L37.866,-150.041L37.866,-36.585L109.612,-36.585L109.612,0L0,0C0,0 -0.285,-150.041 0,-150.041" style="fill:rgb(254,185,65);fill-rule:nonzero;"/>
                            </g>
                            <g transform="matrix(1,0,0,1,633.479,673.363)">
                                <path d="M0,-156.446L38.862,-156.446L38.862,-71.618C38.862,-66.252 40,-60.917 42.421,-56.129C46.171,-48.712 53.774,-40.542 69.042,-40.855L69.042,-5.93C69.042,-5.93 1.851,0 0.711,-73.596C0.711,-73.596 0,-156.303 0,-156.446" style="fill:rgb(254,185,65);fill-rule:nonzero;"/>
                            </g>
                            <g transform="matrix(1,0,0,1,771.135,673.363)">
                                <path d="M0,-156.446L-38.862,-156.446L-38.862,-71.618C-38.862,-66.252 -40,-60.917 -42.421,-56.129C-46.171,-48.712 -53.774,-40.542 -69.042,-40.855L-69.042,-5.93C-69.042,-5.93 -1.851,0 -0.711,-73.596C-0.711,-73.596 0,-156.303 0,-156.446" style="fill:rgb(254,185,65);fill-rule:nonzero;"/>
                            </g>
                            <g transform="matrix(1,0,0,1,792.299,517.106)">
                                <path d="M0,149.377L38.625,149.377L38.625,65.009L87.595,134.192L87.595,72.316L36.253,0L-0.095,0C-0.095,0 0.142,149.234 0,149.377" style="fill:rgb(254,185,65);fill-rule:nonzero;"/>
                            </g>
                            <g transform="matrix(1,0,0,1,967.49,517.106)">
                                <path d="M0,149.377L-38.625,149.377L-38.625,65.009L-87.595,134.192L-87.595,72.316L-36.253,0L0.095,0C0.095,0 -0.143,149.234 0,149.377" style="fill:rgb(254,185,65);fill-rule:nonzero;"/>
                            </g>
                            <g transform="matrix(1,0,0,1,1261.31,666.388)">
                                <path d="M0,-149.566L-35.209,-149.566C-35.209,-149.566 -39.858,-149.851 -41.235,-146.387L-75.922,-51.532L-75.922,0.285L-57.416,0.285L0,-149.566Z" style="fill:rgb(254,185,65);fill-rule:nonzero;"/>
                            </g>
                            <g transform="matrix(1,0,0,1,1109.46,666.387)">
                                <path d="M0,-149.568L35.208,-149.568C35.208,-149.568 39.858,-149.852 41.234,-146.388L75.922,-51.534L75.922,0.284L57.416,0.284L0,-149.568Z" style="fill:rgb(254,185,65);fill-rule:nonzero;"/>
                            </g>
                            <g transform="matrix(1,0,0,1,1333.1,553.786)">
                                <path d="M0,78.105C-21.254,78.105 -38.483,60.876 -38.483,39.622C-38.483,18.368 -21.254,1.138 0,1.138C21.254,1.138 38.483,18.368 38.483,39.622C38.483,60.876 21.254,78.105 0,78.105M0.522,-36.395C-41.146,-36.395 -74.926,-2.617 -74.926,39.052C-74.926,80.721 -41.146,114.5 0.522,114.5C42.19,114.5 75.97,80.721 75.97,39.052C75.97,-2.617 42.19,-36.395 0.522,-36.395" style="fill:rgb(254,185,65);fill-rule:nonzero;"/>
                            </g>
                            <g transform="matrix(1,0,0,1,1100.97,652.152)">
                                <path d="M0,-18.79L-72.031,-18.79L-72.031,-32.599L-108.616,-32.599L-108.616,-11.388C-108.616,-11.388 -107.904,7.118 -84.7,13.809L-7.117,13.809L0,-18.79Z" style="fill:white;fill-rule:nonzero;"/>
                            </g>
                            <g transform="matrix(1,0,0,1,1027.66,516.917)">
                                <path d="M0,27.047L73.028,27.047L56.515,0L-37.012,0L-37.012,8.541C-37.012,8.541 -11.815,9.822 0,27.047" style="fill:white;fill-rule:nonzero;"/>
                            </g>
                            <g transform="matrix(1,0,0,1,1075.92,572.861)">
                                <path d="M0,-1.85L-44.699,-1.85C-44.699,-1.85 -47.404,-1.672 -48.649,-5.551C-49.896,-9.431 -58.294,-31.46 -84.844,-29.325L-84.844,29.61L7.402,29.61L7.402,1.851C7.402,1.851 6.854,-1.99 4.505,-1.776L0,-1.85Z" style="fill:white;fill-rule:nonzero;"/>
                            </g>
                        </g>
                        <g transform="matrix(0.586738,0,0,0.586738,-2058.3,-783.093)">
                            <g transform="matrix(96,0,0,96,4659.97,1975.56)">
                            </g>
                            <text x="4600.86px" y="1975.56px" style="font-family:'FreestyleScript-Regular', 'Freestyle Script', cursive;font-size:96px;fill:rgb(0,64,255);">by</text>
                        </g>
                    </g>
                </g>
            </g>
        </g>
    </g>
</svg>
